<?xml version="1.0" encoding="UTF-8" standalone="no"?>
<svg
   viewBox="0 0 100.71 112.82"
   version="1.1"
   id="svg30"
   sodipodi:docname="check-cert-thumbprint.svg"
   inkscape:version="1.1.1 (3bf5ae0d25, 2021-09-20)"
   xmlns:inkscape="http://www.inkscape.org/namespaces/inkscape"
   xmlns:sodipodi="http://sodipodi.sourceforge.net/DTD/sodipodi-0.dtd"
   xmlns="http://www.w3.org/2000/svg"
   xmlns:svg="http://www.w3.org/2000/svg">
  <sodipodi:namedview
     id="namedview32"
     pagecolor="#ffffff"
     bordercolor="#666666"
     borderopacity="1.0"
     inkscape:pageshadow="2"
     inkscape:pageopacity="0.0"
     inkscape:pagecheckerboard="0"
     showgrid="false"
     inkscape:zoom="5.6284347"
     inkscape:cx="50.280409"
     inkscape:cy="56.321165"
     inkscape:window-width="3840"
     inkscape:window-height="2102"
     inkscape:window-x="0"
     inkscape:window-y="28"
     inkscape:window-maximized="1"
     inkscape:current-layer="svg30" />
  <defs
     id="defs4"><style
   id="style2">.cls-1{fill:#86c3d0;}.cls-2{fill:#fff;}.cls-3{font-size:12px;fill:#1d1d1b;font-family:MyriadPro-Regular, Myriad Pro;}.cls-4{letter-spacing:-0.01em;}.cls-5{letter-spacing:0.04em;}</style>

	
	
	
</defs>
  <path
     class="cls-1"
     d="m 50.35,13.37 a 43,43 0 1 0 43.05,43 43,43 0 0 0 -43.05,-43 z"
     id="path6" />
  <g
     id="HOSTING">
    <text
       class="cls-3"
       id="text27"
       x="3.0282671"
       y="-4.98">CheckThumprint</text>
  </g>
  <g
     id="g4338"
     transform="matrix(0.62891983,0,0,0.62891983,-72.141351,26.628039)">
</g>
  <g
     id="g4340"
     transform="matrix(0.62891983,0,0,0.62891983,-72.141351,26.628039)">
</g>
  <g
     id="g4342"
     transform="matrix(0.62891983,0,0,0.62891983,-72.141351,26.628039)">
</g>
  <g
     id="g4344"
     transform="matrix(0.62891983,0,0,0.62891983,-72.141351,26.628039)">
</g>
  <g
     id="g4346"
     transform="matrix(0.62891983,0,0,0.62891983,-72.141351,26.628039)">
</g>
  <g
     id="g4348"
     transform="matrix(0.62891983,0,0,0.62891983,-72.141351,26.628039)">
</g>
  <g
     id="g4350"
     transform="matrix(0.62891983,0,0,0.62891983,-72.141351,26.628039)">
</g>
  <g
     id="g4352"
     transform="matrix(0.62891983,0,0,0.62891983,-72.141351,26.628039)">
</g>
  <g
     id="g4354"
     transform="matrix(0.62891983,0,0,0.62891983,-72.141351,26.628039)">
</g>
  <g
     id="g4356"
     transform="matrix(0.62891983,0,0,0.62891983,-72.141351,26.628039)">
</g>
  <g
     id="g4358"
     transform="matrix(0.62891983,0,0,0.62891983,-72.141351,26.628039)">
</g>
  <g
     id="g4360"
     transform="matrix(0.62891983,0,0,0.62891983,-72.141351,26.628039)">
</g>
  <g
     id="g4362"
     transform="matrix(0.62891983,0,0,0.62891983,-72.141351,26.628039)">
</g>
  <g
     id="g4364"
     transform="matrix(0.62891983,0,0,0.62891983,-72.141351,26.628039)">
</g>
  <g
     id="g4366"
     transform="matrix(0.62891983,0,0,0.62891983,-72.141351,26.628039)">
</g>
  <g
     id="g3831"
     transform="matrix(0.11994484,0,0,0.11994484,19.694122,25.664093)"
     style="fill:#ffffff">
    <g
       id="g3677"
       style="fill:#ffffff">
	<g
   id="g3675"
   style="fill:#ffffff">
		<path
   d="m 256,4.74 c -141.16,0 -256,114.84 -256,256 0,31.421 5.632,62.116 16.736,91.229 1.442,3.78 5.042,6.104 8.861,6.104 1.123,0 2.266,-0.201 3.377,-0.625 4.891,-1.866 7.345,-7.345 5.479,-12.238 C 24.175,318.263 18.962,289.844 18.962,260.74 18.963,130.036 125.296,23.703 256,23.703 c 130.704,0 237.037,106.333 237.037,237.037 0,5.236 4.245,9.481 9.481,9.481 5.236,0 9.482,-4.245 9.482,-9.481 0,-141.16 -114.84,-256 -256,-256 z"
   id="path3673"
   style="fill:#ffffff" />

	</g>

</g>
    <g
       id="g3683"
       style="fill:#ffffff">
	<g
   id="g3681"
   style="fill:#ffffff">
		<path
   d="m 256.132,52.147 c -56.908,0 -115.863,27.535 -157.602,73.655 -36.968,40.847 -55.595,90.375 -51.044,135.882 l 1.053,10.648 c 7.407,73.761 7.398,73.761 -6.509,101.278 -0.968,1.917 -2.002,3.958 -3.099,6.148 -2.34,4.685 -0.444,10.38 4.238,12.722 1.361,0.681 2.806,1.002 4.232,1.002 3.477,0 6.826,-1.921 8.488,-5.243 1.081,-2.164 2.1,-4.181 3.058,-6.076 16.405,-32.456 16.257,-33.942 8.444,-111.725 l -1.067,-10.643 c -4.018,-40.185 12.819,-84.387 46.199,-121.269 38.201,-42.215 91.97,-67.417 143.609,-67.417 104.565,0 189.764,85.067 189.764,189.63 v 47.407 c 0,5.236 4.245,9.481 9.482,9.481 5.237,0 9.482,-4.245 9.482,-9.481 V 260.74 C 464.859,145.721 371.15,52.147 256.132,52.147 Z"
   id="path3679"
   style="fill:#ffffff" />

	</g>

</g>
    <g
       id="g3689"
       style="fill:#ffffff">
	<g
   id="g3687"
   style="fill:#ffffff">
		<path
   d="M 315.345,110.832 C 296.459,103.348 276.491,99.554 256,99.554 c -43.215,0 -83.683,16.551 -113.951,46.604 -30.459,30.245 -47.234,70.937 -47.234,114.581 0,24.213 2.231,45.329 4.201,63.958 5.083,48.111 7.884,74.614 -28.424,98.82 -4.356,2.905 -5.535,8.792 -2.629,13.148 1.826,2.741 4.833,4.222 7.898,4.222 1.806,0 3.634,-0.514 5.25,-1.592 45.852,-30.567 41.84,-68.53 36.762,-116.588 -1.919,-18.167 -4.095,-38.755 -4.095,-61.968 0,-79.75 62.472,-142.222 142.222,-142.222 18.09,0 35.706,3.345 52.359,9.944 4.863,1.926 10.377,-0.454 12.308,-5.322 1.928,-4.867 -0.454,-10.379 -5.322,-12.307 z"
   id="path3685"
   style="fill:#ffffff" />

	</g>

</g>
    <g
       id="g3695"
       style="fill:#ffffff">
	<g
   id="g3693"
   style="fill:#ffffff">
		<path
   d="m 417.185,260.374 c -0.118,-51.748 -25.315,-100.613 -67.456,-130.782 -4.257,-3.046 -10.18,-2.069 -13.229,2.192 -3.046,4.257 -2.067,10.181 2.192,13.229 37.275,26.685 59.53,69.947 59.53,115.727 0,0.243 0.009,0.486 0.028,0.727 0.093,1.217 9.139,122.623 -9.227,196.086 -1.268,5.079 1.819,10.227 6.901,11.498 0.771,0.192 1.544,0.285 2.305,0.285 4.248,0 8.114,-2.875 9.192,-7.185 18.79,-75.159 10.426,-192.935 9.764,-201.777 z"
   id="path3691"
   style="fill:#ffffff" />

	</g>

</g>
    <g
       id="g3701"
       style="fill:#ffffff">
	<g
   id="g3699"
   style="fill:#ffffff">
		<path
   d="M 362.91,221.716 C 346.586,177.003 303.621,146.961 256,146.961 c -62.736,0 -113.778,51.039 -113.778,113.778 0,0.393 0.025,0.787 0.074,1.176 0.093,0.745 9.218,75.336 0.021,139.706 -0.741,5.183 2.861,9.986 8.047,10.727 0.454,0.065 0.905,0.097 1.352,0.097 4.641,0 8.699,-3.414 9.375,-8.143 9.208,-64.458 1.046,-136.236 0.097,-144.128 0.303,-52.021 42.72,-94.25 94.812,-94.25 39.688,0 75.493,25.035 89.095,62.296 1.796,4.919 7.246,7.444 12.16,5.655 4.919,-1.795 7.449,-7.24 5.655,-12.159 z"
   id="path3697"
   style="fill:#ffffff" />

	</g>

</g>
    <g
       id="g3707"
       style="fill:#ffffff">
	<g
   id="g3705"
   style="fill:#ffffff">
		<path
   d="m 256.132,194.369 c -36.597,0 -66.435,29.773 -66.435,66.37 0,0.37 -0.014,0.741 0.03,1.106 0.185,1.577 17.963,158.327 -26.759,220.938 -3.044,4.262 -2.065,10.183 2.197,13.227 1.671,1.194 3.592,1.766 5.5,1.766 2.956,0 5.87,-1.38 7.72,-3.97 47.991,-67.187 31.632,-221.102 30.211,-233.588 0.28,-25.903 21.572,-46.887 47.539,-46.887 26.141,0 47.539,21.266 47.539,47.407 v 66.37 c 0,5.236 4.245,9.482 9.482,9.482 5.237,0 9.482,-4.245 9.482,-9.482 v -66.37 c -10e-4,-36.596 -29.909,-66.369 -66.506,-66.369 z"
   id="path3703"
   style="fill:#ffffff" />

	</g>

</g>
    <g
       id="g3713"
       style="fill:#ffffff">
	<g
   id="g3711"
   style="fill:#ffffff">
		<path
   d="m 455.995,331.138 c -5.16,-0.456 -9.817,3.401 -10.271,8.618 l -5.785,66.118 c -0.458,5.218 3.401,9.815 8.618,10.271 0.28,0.025 0.56,0.037 0.838,0.037 4.861,0 9.002,-3.72 9.433,-8.655 l 5.785,-66.118 c 0.459,-5.218 -3.4,-9.815 -8.618,-10.271 z"
   id="path3709"
   style="fill:#ffffff" />

	</g>

</g>
    <g
       id="g3719"
       style="fill:#ffffff">
	<g
   id="g3717"
   style="fill:#ffffff">
		<path
   d="m 147.481,432.999 c -4.354,-2.905 -10.243,-1.727 -13.148,2.63 l -18.963,28.444 c -2.905,4.357 -1.727,10.243 2.629,13.148 1.616,1.078 3.442,1.592 5.25,1.592 3.065,0 6.072,-1.482 7.898,-4.222 l 18.963,-28.444 c 2.906,-4.356 1.728,-10.243 -2.629,-13.148 z"
   id="path3715"
   style="fill:#ffffff" />

	</g>

</g>
    <g
       id="g3725"
       style="fill:#ffffff">
	<g
   id="g3723"
   style="fill:#ffffff">
		<path
   d="m 369.567,258.753 c -1.095,-5.12 -6.139,-8.382 -11.257,-7.285 -5.12,1.097 -8.382,6.137 -7.285,11.257 0.278,1.296 27.222,130.539 -18.174,221.329 -2.34,4.685 -0.442,10.38 4.241,12.722 1.361,0.68 2.808,1.002 4.234,1.002 3.477,0 6.826,-1.921 8.488,-5.243 48.339,-96.677 20.943,-228.228 19.753,-233.782 z"
   id="path3721"
   style="fill:#ffffff" />

	</g>

</g>
    <g
       id="g3731"
       style="fill:#ffffff">
	<g
   id="g3729"
   style="fill:#ffffff">
		<path
   d="m 265.199,248.96 c -1.273,-5.083 -6.431,-8.164 -11.498,-6.9 -5.081,1.271 -8.169,6.419 -6.901,11.498 0.183,0.734 17.979,74.12 -9.278,155.889 -1.655,4.968 1.03,10.336 5.997,11.993 0.993,0.331 2.005,0.489 3,0.489 3.968,0 7.669,-2.512 8.993,-6.486 C 284.498,328.49 266,252.165 265.199,248.96 Z"
   id="path3727"
   style="fill:#ffffff" />

	</g>

</g>
    <g
       id="g3737"
       style="fill:#ffffff">
	<g
   id="g3735"
   style="fill:#ffffff">
		<path
   d="m 240.558,441.566 c -4.856,-1.945 -10.377,0.416 -12.324,5.282 l -18.963,47.407 c -1.944,4.861 0.419,10.38 5.282,12.324 1.155,0.463 2.345,0.681 3.519,0.681 3.762,0 7.322,-2.255 8.806,-5.963 l 18.963,-47.407 c 1.944,-4.861 -0.42,-10.379 -5.283,-12.324 z"
   id="path3733"
   style="fill:#ffffff" />

	</g>

</g>
    <g
       id="g3743"
       style="fill:#ffffff">
	<g
   id="g3741"
   style="fill:#ffffff">
		<path
   d="m 312.898,364.663 c -0.005,0 -0.007,0 -0.009,0 -5.229,0 -9.472,4.426 -9.482,9.655 0,0.553 -0.412,56.009 -27.678,119.63 -2.062,4.813 0.167,10.435 4.982,12.498 1.218,0.521 2.484,0.791 3.729,0.791 3.678,0 7.178,-2.141 8.72,-5.738 28.879,-67.384 29.211,-124.773 29.211,-127.176 -10e-4,-5.234 -4.241,-9.66 -9.473,-9.66 z"
   id="path3739"
   style="fill:#ffffff" />

	</g>

</g>
    <g
       id="g3745"
       style="fill:#ffffff">
</g>
    <g
       id="g3747"
       style="fill:#ffffff">
</g>
    <g
       id="g3749"
       style="fill:#ffffff">
</g>
    <g
       id="g3751"
       style="fill:#ffffff">
</g>
    <g
       id="g3753"
       style="fill:#ffffff">
</g>
    <g
       id="g3755"
       style="fill:#ffffff">
</g>
    <g
       id="g3757"
       style="fill:#ffffff">
</g>
    <g
       id="g3759"
       style="fill:#ffffff">
</g>
    <g
       id="g3761"
       style="fill:#ffffff">
</g>
    <g
       id="g3763"
       style="fill:#ffffff">
</g>
    <g
       id="g3765"
       style="fill:#ffffff">
</g>
    <g
       id="g3767"
       style="fill:#ffffff">
</g>
    <g
       id="g3769"
       style="fill:#ffffff">
</g>
    <g
       id="g3771"
       style="fill:#ffffff">
</g>
    <g
       id="g3773"
       style="fill:#ffffff">
</g>
  </g>
</svg>
